# xmcd
#
# Track frame offsets: 
#        150
#        22754
#        36616
#        64809
#        82348
#        101135
#        128983
#        150928
#        173610
#        191981
#        227581
#        239982
#
# Disc length: 3436 seconds
#
# Revision: 0
# Processed by: cddbd v1.5.2PL0 Copyright (c) Steve Scherf et al.
# Submitted via: ExactAudioCopy v0.95b3
#
DISCID=a50d6a0c
DTITLE=Cocker, Joe - Mad Dogs and Englishmen - Fillmore East 3.28.70 Sec
DTITLE=ond Set (1)
DYEAR=1970
DGENRE=Rock and Roll
TTITLE0=Honky Tonk Women
TTITLE1=She Came In Thru The Bathroom Window
TTITLE2=The Weight
TTITLE3=Cry Me A River
TTITLE4=Further On Up The Road
TTITLE5=Darling Be Home Soon
TTITLE6=Space Captain
TTITLE7=Superstar
TTITLE8=Delta Lady
TTITLE9=Let's Go And Get Stoned
TTITLE10=Sticks And Stones
TTITLE11=Let It Be
EXTD=
EXTT0=
EXTT1=
EXTT2=
EXTT3=
EXTT4=
EXTT5=
EXTT6=
EXTT7=
EXTT8=
EXTT9=
EXTT10=
EXTT11=
PLAYORDER=
